<svg width="24" height="24" viewBox="0 0 24 24" fill="none" xmlns="http://www.w3.org/2000/svg">
<g filter="url(#filter0_d_457_1615)">
<path d="M24 11C24 17.0751 19.0751 22 13 22C6.92487 22 2 17.0751 2 11C2 4.92487 6.92487 0 13 0C19.0751 0 24 4.92487 24 11Z" fill="url(#paint0_linear_457_1615)"/>
</g>
<path d="M5.77832 17.2032C7.3557 16.9881 9.24111 15.4389 10.5736 14.6616C12.2759 13.6687 11.4612 11.3817 12.9074 10.2499C14.4015 9.08058 16.8463 9.53064 18.6191 9.53064C19.7193 9.53064 20.7386 8.90596 21.6668 8.41174C22.6049 7.91223 22.3673 8.22125 21.6988 8.70745C20.7935 9.36586 19.878 9.98323 19.088 10.7268C18.3639 11.4083 17.4223 12.869 16.3174 12.9833C15.266 13.092 14.2413 13.3309 13.1258 13.3669C12.4833 13.3876 11.8926 14.2473 11.4155 14.6377C10.2094 15.6245 8.15919 15.8773 7.07306 16.9634" stroke="#D99848" stroke-opacity="0.55" strokeWidth="2" strokeLinecap="square"/>
<path d="M13.0669 12.9833C14.3231 12.8996 15.7257 12.1947 16.5915 11.3289C17.7226 10.1978 16.1101 11.5626 15.4166 11.891C14.9236 12.1246 14.3496 12.3599 13.7889 12.3599C12.8448 12.3599 14.0127 11.4701 14.1911 11.1131C14.587 10.3215 16.1417 10.7775 16.8072 10.7775" stroke="#D96248" stroke-opacity="0.29" strokeWidth="2" strokeLinecap="square"/>
<defs>
<filter id="filter0_d_457_1615" x="0" y="0" width="24" height="24" filterUnits="userSpaceOnUse" color-interpolation-filters="sRGB">
<feFlood flood-opacity="0" result="BackgroundImageFix"/>
<feColorMatrix in="SourceAlpha" type="matrix" values="0 0 0 0 0 0 0 0 0 0 0 0 0 0 0 0 0 0 127 0" result="hardAlpha"/>
<feOffset dx="-1" dy="1"/>
<feGaussianBlur stdDeviation="0.5"/>
<feComposite in2="hardAlpha" operator="out"/>
<feColorMatrix type="matrix" values="0 0 0 0 0 0 0 0 0 0 0 0 0 0 0 0 0 0 0.49 0"/>
<feBlend mode="normal" in2="BackgroundImageFix" result="effect1_dropShadow_457_1615"/>
<feBlend mode="normal" in="SourceGraphic" in2="effect1_dropShadow_457_1615" result="shape"/>
</filter>
<linearGradient id="paint0_linear_457_1615" x1="6" y1="2" x2="16.85" y2="20.35" gradientUnits="userSpaceOnUse">
<stop stop-color="#EBB574"/>
<stop offset="0.325367" stop-color="#F2C691"/>
<stop offset="0.635137" stop-color="#DC9D4E"/>
<stop offset="0.877246" stop-color="#F0C38C"/>
</linearGradient>
</defs>
</svg>
